HIERARCHY
ROOT hip
{
  OFFSET 0 0 0
  CHANNELS 6 Xposition Yposition Zposition Zrotation Yrotation Xrotation
  JOINT abdomen
  {
    OFFSET 0 20.6881 -0.73152
    CHANNELS 3 Zrotation Xrotation Yrotation
    JOINT chest
    {
      OFFSET 0 11.7043 -0.48768
      CHANNELS 3 Zrotation Xrotation Yrotation
      JOINT neck
      {
        OFFSET 0 22.1894 -2.19456
        CHANNELS 3 Zrotation Xrotation Yrotation
        JOINT head
        {
          OFFSET -0.24384 7.07133 1.2192
          CHANNELS 3 Zrotation Xrotation Yrotation
          JOINT leftEye
          {
            OFFSET 4.14528 8.04674 8.04672
            CHANNELS 3 Zrotation Xrotation Yrotation
            End Site
            {
              OFFSET 1 0 0
            }
          }
          JOINT rightEye
          {
            OFFSET -3.6576 8.04674 8.04672
            CHANNELS 3 Zrotation Xrotation Yrotation
            End Site
            {
              OFFSET 1 0 0
            }
          }
        }
      }
      JOINT rCollar
      {
        OFFSET -2.68224 19.2634 -4.8768
        CHANNELS 3 Zrotation Xrotation Yrotation
        JOINT rShldr
        {
          OFFSET -8.77824 -1.95073 1.46304
          CHANNELS 3 Zrotation Xrotation Yrotation
          JOINT rForeArm
          {
            OFFSET -28.1742 -1.7115 0.48768
            CHANNELS 3 Zrotation Xrotation Yrotation
            JOINT rHand
            {
              OFFSET -22.5879 0.773209 7.07136
              CHANNELS 3 Zrotation Xrotation Yrotation
              JOINT rThumb1
              {
                OFFSET -1.2192 -0.487915 3.41376
                CHANNELS 3 Zrotation Xrotation Yrotation
                JOINT rThumb2
                {
                  OFFSET -3.37035 -0.52449 3.41376
                  CHANNELS 3 Zrotation Xrotation Yrotation
                  End Site
                  {
                    OFFSET -1.78271 -1.18214 1.43049
                  }
                }
              }
              JOINT rIndex1
              {
                OFFSET -7.75947 0.938293 5.60832
                CHANNELS 3 Zrotation Xrotation Yrotation
                JOINT rIndex2
                {
                  OFFSET -2.54057 -0.884171 1.56538
                  CHANNELS 3 Zrotation Xrotation Yrotation
                  End Site
                  {
                    OFFSET -1.62519 -0.234802 1.16502
                  }
                }
              }
              JOINT rMid1
              {
                OFFSET -8.24714 1.18213 3.41376
                CHANNELS 3 Zrotation Xrotation Yrotation
                JOINT rMid2
                {
                  OFFSET -3.10165 -0.590103 1.0647
                  CHANNELS 3 Zrotation Xrotation Yrotation
                  End Site
                  {
                    OFFSET -2.48547 -0.328903 0.83742
                  }
                }
              }
              JOINT rRing1
              {
                OFFSET -8.82822 0.546677 1.51678
                CHANNELS 3 Zrotation Xrotation Yrotation
                JOINT rRing2
                {
                  OFFSET -2.60934 -0.819778 -0.0198488
                  CHANNELS 3 Zrotation Xrotation Yrotation
                  End Site
                  {
                    OFFSET -2.33842 -0.294052 0.168128
                  }
                }
              }
              JOINT rPinky1
              {
                OFFSET -8.27202 -0.0477905 -0.4584
                CHANNELS 3 Zrotation Xrotation Yrotation
                JOINT rPinky2
                {
                  OFFSET -1.82734 -0.647385 -0.700984
                  CHANNELS 3 Zrotation Xrotation Yrotation
                  End Site
                  {
                    OFFSET -1.69225 -0.51767 -0.607171
                  }
                }
              }
            }
          }
        }
      }
      JOINT lCollar
      {
        OFFSET 2.68224 19.2634 -4.8768
        CHANNELS 3 Zrotation Xrotation Yrotation
        JOINT lShldr
        {
          OFFSET 8.77824 -1.95073 1.46304
          CHANNELS 3 Zrotation Xrotation Yrotation
          JOINT lForeArm
          {
            OFFSET 28.1742 -1.7115 0.48768
            CHANNELS 3 Zrotation Xrotation Yrotation
            JOINT lHand
            {
              OFFSET 22.5879 0.773209 7.07136
              CHANNELS 3 Zrotation Xrotation Yrotation
              JOINT lThumb1
              {
                OFFSET 1.2192 -0.487915 3.41376
                CHANNELS 3 Zrotation Xrotation Yrotation
                JOINT lThumb2
                {
                  OFFSET 3.37035 -0.52449 3.41376
                  CHANNELS 3 Zrotation Xrotation Yrotation
                  End Site
                  {
                    OFFSET 1.78271 -1.18214 1.43049
                  }
                }
              }
              JOINT lIndex1
              {
                OFFSET 7.75947 0.938293 5.60832
                CHANNELS 3 Zrotation Xrotation Yrotation
                JOINT lIndex2
                {
                  OFFSET 2.54057 -0.884171 1.56538
                  CHANNELS 3 Zrotation Xrotation Yrotation
                  End Site
                  {
                    OFFSET 1.62519 -0.234802 1.16502
                  }
                }
              }
              JOINT lMid1
              {
                OFFSET 8.24714 1.18213 3.41376
                CHANNELS 3 Zrotation Xrotation Yrotation
                JOINT lMid2
                {
                  OFFSET 3.10165 -0.590103 1.0647
                  CHANNELS 3 Zrotation Xrotation Yrotation
                  End Site
                  {
                    OFFSET 2.48547 -0.328903 0.83742
                  }
                }
              }
              JOINT lRing1
              {
                OFFSET 8.82822 0.546677 1.51678
                CHANNELS 3 Zrotation Xrotation Yrotation
                JOINT lRing2
                {
                  OFFSET 2.60934 -0.819778 -0.0198488
                  CHANNELS 3 Zrotation Xrotation Yrotation
                  End Site
                  {
                    OFFSET 2.33842 -0.294052 0.168128
                  }
                }
              }
              JOINT lPinky1
              {
                OFFSET 8.27202 -0.0477905 -0.4584
                CHANNELS 3 Zrotation Xrotation Yrotation
                JOINT lPinky2
                {
                  OFFSET 1.82734 -0.647385 -0.700984
                  CHANNELS 3 Zrotation Xrotation Yrotation
                  End Site
                  {
                    OFFSET 1.69225 -0.51767 -0.607171
                  }
                }
              }
            }
          }
        }
      }
    }
  }
  JOINT rButtock
  {
    OFFSET -8.77824 4.35084 1.2192
    CHANNELS 3 Zrotation Xrotation Yrotation
    JOINT rThigh
    {
      OFFSET 0 -1.70687 -2.19456
      CHANNELS 3 Zrotation Xrotation Yrotation
      JOINT rShin
      {
        OFFSET 0 -36.8199 0.73152
        CHANNELS 3 Zrotation Xrotation Yrotation
        JOINT rFoot
        {
          OFFSET 0.73152 -45.1104 -5.12064
          CHANNELS 3 Zrotation Xrotation Yrotation
          End Site
          {
            OFFSET -1.1221 -3.69964 12.103
          }
        }
      }
    }
  }
  JOINT lButtock
  {
    OFFSET 8.77824 4.35084 1.2192
    CHANNELS 3 Zrotation Xrotation Yrotation
    JOINT lThigh
    {
      OFFSET 0 -1.70687 -2.19456
      CHANNELS 3 Zrotation Xrotation Yrotation
      JOINT lShin
      {
        OFFSET 0 -36.8199 0.73152
        CHANNELS 3 Zrotation Xrotation Yrotation
        JOINT lFoot
        {
          OFFSET -0.73152 -45.1104 -5.12064
          CHANNELS 3 Zrotation Xrotation Yrotation
          End Site
          {
            OFFSET 1.1221 -3.69964 12.103
          }
        }
      }
    }
  }
}
MOTION
Frames:	8
Frame Time:	0.00833333
164.222 84.7658 37.4515 0.0 0.0 0.0 -0.385197 -0.00168813 -0.0109958 -0.106234 -0.00256712 -0.0184049 1.37541e-14 -1.59028e-15 8.69684e-17 4.13348e-14 3.18055e-15 2.90412e-16 -0.0 0.0 0.0 -0.0 0.0 0.0 6.90672e-15 9.70628e-18 1.98785e-16 1.45922e-13 6.83322e-17 2.38542e-15 2.49445e-12 -7.38485e-13 2.22639e-14 2.855e-11 7.86467e-13 2.06736e-13 6.73442e-11 1.04149e-13 5.05708e-13 1.16297e-10 1.74931e-13 8.51594e-13 6.7351e-11 1.06549e-13 4.86625e-13 7.73091 5.47488 0.417314 6.7344e-11 1.04362e-13 5.08889e-13 2.90554 0.965183 0.102902 6.73534e-11 1.05256e-13 4.98552e-13 10.2786 0.731801 0.0259123 6.73433e-11 1.03368e-13 5.05708e-13 2.22167 -0.733487 -0.20892 6.90926e-15 1.00945e-17 -9.93923e-17 1.42799e-13 -1.2424e-17 7.95139e-16 2.49341e-12 7.5399e-13 -1.59028e-14 2.85494e-11 -7.11351e-13 2.54444e-13 6.73438e-11 9.42307e-14 4.96167e-13 1.16304e-10 1.59028e-13 8.6193e-13 6.73355e-11 9.74045e-14 5.08889e-13 -7.73091 5.47488 -0.417314 6.73419e-11 9.47209e-14 4.96167e-13 -2.90554 0.965183 -0.102902 6.73301e-11 9.49197e-14 4.98552e-13 -10.2786 0.731801 -0.0259123 6.73449e-11 9.58142e-14 4.92986e-13 -2.22167 -0.733487 0.20892 -2.03217e-16 0.0 -3.88251e-19 0.221649 -2.58356 -0.0280809 -0.00748957 -0.872631 -0.06514 -0.51311 3.45577 0.129347 2.03217e-16 0.0 3.88251e-19 -0.807776 -4.07084 0.0653913 0.00325576 1.82139 0.024432 0.517712 2.24911 -0.10518
159.869 83.0488 31.3318 -29.2239 -75.2255 33.2368 2.21275 -0.68389 1.34284 -0.35198 -0.591363 0.365319 -3.06688 1.45585 -2.2136 1.80741 -4.58849 -3.56932 -0.0 0.0 0.0 -0.0 0.0 0.0 3.68109e-14 3.26759e-15 1.09936e-13 9.27148 0.885335 15.2883 -14.62 -11.803 14.5222 0.0168286 2.88818 0.404066 -3.27701e-10 8.16492e-10 1.07859e-09 -5.57277e-10 1.40556e-09 1.86413e-09 -3.27693e-10 8.1649e-10 1.07858e-09 7.73091 5.47488 0.417314 -3.27701e-10 8.1649e-10 1.0786e-09 2.90554 0.965183 0.102902 -3.27693e-10 8.1649e-10 1.07859e-09 10.2786 0.731801 0.0259123 -3.27704e-10 8.16488e-10 1.0786e-09 2.22167 -0.733487 -0.20892 3.67621e-14 3.26833e-15 1.09678e-13 -21.6495 -1.1414 1.17904 2.58344 -0.968241 -4.23093 -0.237205 10.8452 -1.4276 1.29626e-09 -1.59298e-09 -1.70556e-09 2.18489e-09 -2.77777e-09 -2.97916e-09 1.29625e-09 -1.59298e-09 -1.70554e-09 -7.73091 5.47488 -0.417314 1.29625e-09 -1.59298e-09 -1.70555e-09 -2.90554 0.965183 -0.102902 1.29624e-09 -1.59298e-09 -1.70555e-09 -10.2786 0.731801 -0.0259123 1.29626e-09 -1.59298e-09 -1.70556e-09 -2.22167 -0.733487 0.20892 -2.03217e-16 0.0 -3.88251e-19 2.72339 -7.15774 -0.692858 -0.0128502 4.35886 -0.0335656 -0.552087 2.06487 -3.47863 2.03217e-16 0.0 3.88251e-19 3.66989 -8.64596 -1.19932 -0.00685646 17.405 -0.196784 0.468116 5.40172 -1.02641
159.198 83.1249 31.1946 -29.8729 -75.4218 33.8713 4.98618 -1.40228 2.75035 -0.604091 -1.21729 0.76425 -6.18089 2.97959 -4.55359 3.08327 -9.38283 -7.40953 -0.0 0.0 0.0 -0.0 0.0 0.0 6.97601e-14 4.00707e-15 2.31895e-13 18.6208 1.7143 31.4025 -23.5821 -21.8975 31.876 -0.0100622 5.96863 0.838554 -7.52986e-10 1.71867e-09 2.27926e-09 -1.28206e-09 2.95854e-09 3.93916e-09 -7.52977e-10 1.71867e-09 2.27925e-09 7.73091 5.47488 0.417314 -7.52985e-10 1.71867e-09 2.27927e-09 2.90554 0.965183 0.102902 -7.52979e-10 1.71867e-09 2.27926e-09 10.2786 0.731801 0.0259123 -7.52991e-10 1.71867e-09 2.27927e-09 2.22167 -0.733487 -0.20892 6.96547e-14 4.00822e-15 2.3168e-13 -44.4782 -2.35762 2.40696 5.15301 -1.97076 -8.69694 0.143313 22.3264 -3.12297 2.67062e-09 -3.36988e-09 -3.60865e-09 4.49847e-09 -5.87621e-09 -6.30342e-09 2.67061e-09 -3.36988e-09 -3.60864e-09 -7.73091 5.47488 -0.417314 2.67061e-09 -3.36988e-09 -3.60865e-09 -2.90554 0.965183 -0.102902 2.6706e-09 -3.36988e-09 -3.60865e-09 -10.2786 0.731801 -0.0259123 2.67062e-09 -3.36988e-09 -3.60866e-09 -2.22167 -0.733487 0.20892 -2.03217e-16 0.0 -3.88251e-19 5.23226 -12.0293 -1.42291 -0.0250339 9.9045 -0.000329976 -0.781807 0.619272 -7.29865 2.03217e-16 0.0 3.88251e-19 8.17551 -13.4225 -2.59884 0.136955 33.8678 -0.496303 0.529796 8.80004 -2.02196
158.358 83.2457 31.0905 -31.682 -75.9298 35.4207 7.50532 -2.04374 4.05281 -0.819805 -1.76864 1.13325 -8.86318 4.34146 -6.65786 3.67675 -13.5489 -10.9829 -0.0 0.0 0.0 -0.0 0.0 0.0 9.66192e-14 9.78337e-15 3.29409e-13 26.5637 1.91718 45.8922 -26.3066 -25.9835 48.8821 -0.0729146 8.6628 1.22463 -1.11779e-09 2.44927e-09 3.23477e-09 -1.90442e-09 4.21633e-09 5.59069e-09 -1.11778e-09 2.44926e-09 3.23476e-09 7.73091 5.47488 0.417314 -1.11779e-09 2.44926e-09 3.23477e-09 2.90554 0.965183 0.102902 -1.11779e-09 2.44926e-09 3.23477e-09 10.2786 0.731801 0.0259123 -1.1178e-09 2.44926e-09 3.23478e-09 2.22167 -0.733487 -0.20892 9.64677e-14 9.7848e-15 3.29234e-13 -64.8075 -3.4184 3.54272 7.32477 -2.84144 -12.7068 1.16242 32.447 -4.98624 3.75408e-09 -4.77912e-09 -5.11766e-09 6.32206e-09 -8.33361e-09 -8.9392e-09 3.75407e-09 -4.77912e-09 -5.11764e-09 -7.73091 5.47488 -0.417314 3.75408e-09 -4.77913e-09 -5.11766e-09 -2.90554 0.965183 -0.102902 3.75407e-09 -4.77913e-09 -5.11766e-09 -10.2786 0.731801 -0.0259123 3.75408e-09 -4.77913e-09 -5.11767e-09 -2.22167 -0.733487 0.20892 -2.03217e-16 0.0 -3.88251e-19 7.39651 -16.2974 -2.0903 -0.0411102 14.8218 0.0308869 -1.15296 -0.693294 -10.6881 2.03217e-16 0.0 3.88251e-19 11.9924 -17.7637 -3.87241 0.488423 48.5689 -0.925132 0.678819 11.6948 -2.91592
157.738 83.3039 30.9863 -31.7633 -75.9444 35.5436 9.32366 -2.49682 5.09055 -0.960799 -2.13382 1.42696 -10.7001 5.32291 -8.15711 3.80222 -16.3482 -13.6277 -0.0 0.0 0.0 -0.0 0.0 0.0 1.08253e-13 2.81517e-14 3.65813e-13 32.0211 1.46336 56.2889 -26.639 -25.1994 59.6018 -0.134338 10.393 1.47704 -1.3314e-09 2.7509e-09 3.57737e-09 -2.27072e-09 4.73612e-09 6.18348e-09 -1.33139e-09 2.75089e-09 3.57736e-09 7.73091 5.47488 0.417314 -1.3314e-09 2.75089e-09 3.57737e-09 2.90554 0.965183 0.102902 -1.3314e-09 2.75089e-09 3.57737e-09 10.2786 0.731801 0.0259123 -1.33141e-09 2.75089e-09 3.57739e-09 2.22167 -0.733487 -0.20892 1.08082e-13 2.81531e-14 3.65664e-13 -78.9866 -4.09581 4.44269 8.79665 -3.44155 -15.5634 2.35359 39.2513 -6.59393 4.11029e-09 -5.26922e-09 -5.64145e-09 6.92068e-09 -9.18841e-09 -9.85374e-09 4.11029e-09 -5.26921e-09 -5.64144e-09 -7.73091 5.47488 -0.417314 4.11029e-09 -5.26922e-09 -5.64145e-09 -2.90554 0.965183 -0.102902 4.11028e-09 -5.26922e-09 -5.64145e-09 -10.2786 0.731801 -0.0259123 4.1103e-09 -5.26922e-09 -5.64146e-09 -2.22167 -0.733487 0.20892 -2.03217e-16 0.0 -3.88251e-19 8.94723 -19.0655 -2.5361 -0.0546762 18.1684 0.0554077 -1.52016 -1.70438 -13.0005 2.03217e-16 0.0 3.88251e-19 14.5467 -21.0475 -4.70587 0.994574 58.8689 -1.45392 0.8103 13.3425 -3.5096
157.04 83.3787 30.8769 -32.5628 -76.1148 36.2831 10.1283 -2.69022 5.76246 -0.991021 -2.22772 1.6173 -11.4638 5.79081 -8.79871 3.84218 -17.3862 -14.7902 -0.0 0.0 0.0 -0.0 0.0 0.0 9.62586e-14 7.54815e-14 3.01235e-13 34.2182 0.655813 60.9914 -26.4849 -23.5662 61.4217 -0.153268 10.767 1.53255 -1.37714e-09 2.39113e-09 2.94861e-09 -2.35528e-09 4.11843e-09 5.09893e-09 -1.37713e-09 2.39113e-09 2.94861e-09 7.73091 5.47488 0.417314 -1.37714e-09 2.39113e-09 2.94862e-09 2.90554 0.965183 0.102902 -1.37714e-09 2.39113e-09 2.94862e-09 10.2786 0.731801 0.0259123 -1.37715e-09 2.39112e-09 2.94863e-09 2.22167 -0.733487 -0.20892 9.61099e-14 7.54822e-14 3.01094e-13 -84.611 -4.25728 5.00529 9.41367 -3.70201 -16.7911 2.88732 41.4962 -7.22761 3.26019e-09 -4.24736e-09 -4.53546e-09 5.48688e-09 -7.40706e-09 -7.92099e-09 3.26018e-09 -4.24736e-09 -4.53545e-09 -7.73091 5.47488 -0.417314 3.26018e-09 -4.24737e-09 -4.53546e-09 -2.90554 0.965183 -0.102902 3.26018e-09 -4.24737e-09 -4.53546e-09 -10.2786 0.731801 -0.0259123 3.26019e-09 -4.24737e-09 -4.53548e-09 -2.22167 -0.733487 0.20892 -2.03217e-16 0.0 -3.88251e-19 9.75762 -19.7332 -2.62116 -0.0587704 19.3131 0.0683817 -1.72398 -2.33188 -13.7968 2.03217e-16 0.0 3.88251e-19 15.563 -22.8789 -4.82208 1.32158 63.0593 -1.78047 0.811146 13.2468 -3.63937
156.346 83.4475 30.7701 -33.3622 -76.2545 37.0296 10.2009 -2.69906 6.17228 -0.944981 -2.12844 1.73359 -11.4868 5.89716 -8.8242 3.9608 -17.2113 -14.8412 -0.0 0.0 0.0 -0.0 0.0 0.0 6.74975e-14 1.42958e-13 1.65261e-13 34.0585 -0.363405 61.6537 -25.7969 -21.9989 57.3817 -0.13543 10.1729 1.44584 -1.30088e-09 1.56184e-09 1.63143e-09 -2.23496e-09 2.69323e-09 2.82557e-09 -1.30088e-09 1.56184e-09 1.63142e-09 7.73091 5.47488 0.417314 -1.30088e-09 1.56184e-09 1.63143e-09 2.90554 0.965183 0.102902 -1.30088e-09 1.56184e-09 1.63143e-09 10.2786 0.731801 0.0259123 -1.30089e-09 1.56184e-09 1.63144e-09 2.22167 -0.733487 -0.20892 6.7401e-14 1.42958e-13 1.65116e-13 -84.1371 -4.05076 5.32596 9.45125 -3.73271 -16.8532 2.69742 40.5076 -6.96646 1.55738e-09 -2.15627e-09 -2.27727e-09 2.61648e-09 -3.76144e-09 -3.97529e-09 1.55737e-09 -2.15627e-09 -2.27726e-09 -7.73091 5.47488 -0.417314 1.55738e-09 -2.15627e-09 -2.27727e-09 -2.90554 0.965183 -0.102902 1.55737e-09 -2.15628e-09 -2.27728e-09 -10.2786 0.731801 -0.0259123 1.55738e-09 -2.15627e-09 -2.27729e-09 -2.22167 -0.733487 0.20892 -2.03217e-16 0.0 -3.88251e-19 10.0579 -18.9017 -2.44051 -0.054513 18.885 0.0725698 -1.76678 -2.69613 -13.5077 2.03217e-16 0.0 3.88251e-19 15.5429 -23.6777 -4.39764 1.30417 62.8856 -1.75802 0.708735 11.9073 -3.43639
155.66 83.508 30.6653 -34.1333 -76.3542 37.7627 9.9842 -2.63225 6.46719 -0.890667 -1.96923 1.81649 -11.206 5.8562 -8.60248 4.11679 -16.5448 -14.4478 -0.0 0.0 0.0 -0.0 0.0 0.0 3.57293e-14 2.00362e-13 2.5413e-14 32.9595 -1.6093 60.703 -24.4307 -19.6517 51.1098 -0.106982 9.204 1.30507 -1.10575e-09 6.4209e-10 2.20129e-10 -1.90984e-09 1.11188e-09 3.88867e-10 -1.10574e-09 6.42094e-10 2.2012e-10 7.73091 5.47488 0.417314 -1.10575e-09 6.42094e-10 2.20126e-10 2.90554 0.965183 0.102902 -1.10574e-09 6.42094e-10 2.20127e-10 10.2786 0.731801 0.0259123 -1.10575e-09 6.42091e-10 2.20135e-10 2.22167 -0.733487 -0.20892 3.56888e-14 2.00361e-13 2.52604e-14 -81.2099 -3.67012 5.55533 9.26411 -3.67552 -16.4574 2.25241 38.2086 -6.37424 -1.85423e-10 2.2965e-12 4.10278e-11 -3.20647e-10 1.90448e-12 7.5462e-11 -1.85432e-10 2.29783e-12 4.10404e-11 -7.73091 5.47488 -0.417314 -1.85423e-10 2.2975e-12 4.10255e-11 -2.90554 0.965183 -0.102902 -1.8543e-10 2.29794e-12 4.10225e-11 -10.2786 0.731801 -0.0259123 -1.85422e-10 2.29855e-12 4.10084e-11 -2.22167 -0.733487 0.20892 -2.03217e-16 0.0 -3.88251e-19 10.137 -17.4802 -2.17031 -0.0469351 17.8326 0.0741154 -1.73349 -2.94325 -12.7871 2.03217e-16 0.0 3.88251e-19 15.1069 -24.0515 -3.77726 1.13745 60.8893 -1.58495 0.586496 10.0772 -3.13141
